<?xml version="1.0" encoding="utf-8"?>
<!-- Generator: Adobe Illustrator 18.1.1, SVG Export Plug-In . SVG Version: 6.00 Build 0)  -->
<!DOCTYPE svg PUBLIC "-//W3C//DTD SVG 1.1//EN" "http://www.w3.org/Graphics/SVG/1.1/DTD/svg11.dtd">
<svg version="1.1" id="Layer_1" xmlns="http://www.w3.org/2000/svg" xmlns:xlink="http://www.w3.org/1999/xlink" x="0px" y="0px"
	 viewBox="0 0 397.1 69" enable-background="new 0 0 397.1 69" xml:space="preserve">
<path fill="#FFFFFF" d="M22,10.4c7.3,0,13.8,2.1,17.9,5.2l3.2-3.6C38,8.3,30.4,6,22,6l0,0C13.5,6,5.9,8.3,0.8,11.9L4,15.5
	C8.1,12.4,14.7,10.4,22,10.4"/>
<g>
	<g>
		<path fill="#FFFFFF" d="M60.2,28.5c0-0.3-0.7-0.5-1.6-0.6c-0.9-0.1-1.6,0.1-1.6,0.3c0,0.3,0.7,0.5,1.6,0.6
			C59.4,28.9,60.2,28.8,60.2,28.5z"/>
		<path fill="#FFFFFF" d="M4.1,28.3C4,28,3.3,27.9,2.4,28c-0.9,0.1-1.6,0.4-1.5,0.6c0.1,0.3,0.8,0.4,1.7,0.3
			C3.4,28.8,4.2,28.5,4.1,28.3z"/>
		<path fill="#FFFFFF" d="M16.5,25.7c7.5,0.6,10.8,2.9,13.9,2.8c3.1-0.1,8.1-2.6,13.9-2.8c8.1-0.4,14.9,0.6,16.8,1v-5.6
			c0-2.1-1.8-3.8-4-3.8H4c-2.2,0-4,1.7-4,3.8v5.6C1.9,26.3,8.6,25.1,16.5,25.7z"/>
		<path fill="#FFFFFF" d="M53.5,28c-2.9-1.1-11.6-0.9-14.8,0.4c-2,0.9-3.1,3-3.1,4c0,2.3,1,6.8,3.6,9c2.9,2.5,7.3,2.7,7.3,2.7h2.2
			c0,0,1.5-0.2,2.9-0.7c1.1-0.5,2.1-1.2,3.1-2.2c2.2-2.5,2.7-6.8,2.5-8.8C56.9,30.5,55.6,28.8,53.5,28z M46.1,41.9
			c-3.7,0-6.8-2.9-6.8-6.6c0-3.6,3-6.6,6.8-6.6c3.7,0,6.8,2.9,6.8,6.6C52.9,38.9,49.9,41.9,46.1,41.9z"/>
		<path fill="#FFFFFF" d="M9.5,43.4c1.5,0.6,2.9,0.7,2.9,0.7h2.2c0,0,4.4-0.2,7.3-2.7c2.5-2.2,3.6-6.7,3.6-9c0-1-1.1-3.2-3.1-4
			c-3.2-1.4-11.9-1.5-14.8-0.4c-2.1,0.8-3.3,2.5-3.6,4.3c-0.2,2.1,0.3,6.4,2.5,8.8C7.4,42.2,8.4,43,9.5,43.4z M15,28.8
			c3.7,0,6.8,2.9,6.8,6.6c0,3.6-3,6.6-6.8,6.6c-3.7,0-6.8-2.9-6.8-6.6C8.2,31.7,11.3,28.8,15,28.8z"/>
		<path fill="#FFFFFF" d="M59.2,32.5c-0.4,1.5-0.5,3.7-1.1,5.7c-0.4,1.4-1,2.8-1.9,3.9c-1.8,2.3-4.7,3.1-7.3,3.3
			c-2.3,0.1-8.8-0.4-11.7-3.4c-1.1-1.2-2.1-2.6-2.8-4c-1-2.2-1.4-4.6-2.5-5.7c-0.4-0.4-1-0.4-1.7-0.4c-0.5,0-0.9-0.1-1.2,0.1
			c-0.8,0.6-1.4,2.8-2.2,4.8c-0.7,1.8-1.7,3.6-2.9,4.9c-3.3,3.6-9.1,3.9-11.7,3.7c-2.7-0.1-5.3-0.8-7.9-3.7c-2.2-2.5-2-6.9-2.6-9.3
			c-0.3-1.3-1.3-1.9-1.8-2v23.4c0,2.1,1.8,3.8,4,3.8h53.1c2.2,0,4-1.7,4-3.8V30.4C60.7,30.4,59.7,30.8,59.2,32.5z"/>
		<g display="none">
			<path display="inline" fill="#B32317" d="M29.7,48.5c-0.8-1.4-2.9-0.6-3.8,0.8c-1.1,1.7-4.7,1.6-5.5-0.4c0.5,1.3,1.6,2.4,3,2.7
				c1.3,0.2,2.2-0.3,3.3-0.9c0.5-0.3,0.9-0.1,1.4-0.1c0.1,0.1,0.3,0.1,0.5,0.1c0.7,0,1.3-0.6,1.3-1.3C30,49,29.9,48.7,29.7,48.5z"/>
			<path display="inline" fill="#B32317" d="M31.3,48.5c0.8-1.4,2.9-0.6,3.8,0.8c1.1,1.7,4.7,1.6,5.5-0.4c-0.5,1.3-1.6,2.4-3,2.7
				c-1.3,0.2-2.2-0.3-3.3-0.9c-0.5-0.3-0.9-0.1-1.4-0.1c-0.1,0.1-0.3,0.1-0.5,0.1c-0.7,0-1.3-0.6-1.3-1.3C31,49,31.1,48.7,31.3,48.5
				z"/>
		</g>
		<path fill="#B32317" d="M40.9,47.2c-1.2,0-1.4,0.8-1.4,0.8s0.3-0.3,0.9-0.3c1,0.1,1.5,2.2-0.3,2.3c-2.3,0.2-5.2-5-9.6-2
			c-4.5-2.9-7.3,2.2-9.6,2c-1.7-0.1-1.2-2.2-0.3-2.3c0.6-0.1,0.9,0.3,0.9,0.3s-0.2-0.8-1.4-0.8c-1.5,0-1.9,1.5-1.9,2.4
			c0.2,1.5,1.4,3.4,4.8,3.4c5,0,7.4-2.4,7.4-2.4s2.4,2.4,7.4,2.4c3.4,0,4.7-1.9,4.8-3.4C42.8,48.7,42.4,47.2,40.9,47.2z"/>
	</g>
</g>
<path fill="#FFFFFF" d="M23.6,4.4c7.3,0,14.1,1.8,18.1,4.9l3-3.4C39.6,2.3,32.1,0,23.6,0l0,0C15.1,0,7.5,2.3,2.5,5.9l3.2,3.6
	C9.7,6.4,16.3,4.4,23.6,4.4"/>
<path fill="#FFFFFF" d="M56.2,14.2c-3.9-1.3-7.8-1.1-10.7,0.2l-0.9-2.9c3.5-1.4,8-1.6,12.5-0.1l0,0c2.7,0.9,4.8,2.3,4.8,2.3
	l-1.8,2.4C59,15.3,57.6,14.7,56.2,14.2"/>
<path fill="#FFFFFF" d="M57,10.9C53.4,9,49.5,8.6,46.5,9.4l-0.4-3c3.7-0.9,8.2-0.3,12.4,1.9l0,0c2.5,1.3,4.3,2.8,4.3,2.8l-1.7,2.5
	C60,12.7,58.4,11.7,57,10.9"/>
<g>
	<g>
		<g>
			<defs>
				<path id="SVGID_21_" d="M129.4,54.2h-5.8V40.4c0-2.6-0.4-4.4-1.2-5.6c-0.8-1.2-2.2-1.8-4.2-1.8c-2.3,0-4.1,0.8-5.4,2.5v18.6
					h-5.8V15.5h5.8v14.8c1.8-1.5,3.8-2.3,6-2.3c7.1,0,10.7,4.1,10.7,12.3V54.2z"/>
			</defs>
			<use xlink:href="#SVGID_21_"  overflow="visible" fill-rule="evenodd" clip-rule="evenodd" fill="#FFFFFF"/>
			<clipPath id="SVGID_1_">
				<use xlink:href="#SVGID_21_"  overflow="visible"/>
			</clipPath>
			
				<rect x="103.5" y="12.2" clip-path="url(#SVGID_1_)" fill-rule="evenodd" clip-rule="evenodd" fill="#FFFFFF" width="29.2" height="45.4"/>
		</g>
	</g>
	<g>
		<g>
			<defs>
				<path id="SVGID_23_" d="M139.5,41.4c0,2.6,0.6,4.6,1.8,6.1c1.2,1.5,2.9,2.3,5.1,2.3c2.2,0,3.9-0.8,5.1-2.3
					c1.2-1.5,1.8-3.6,1.8-6.1c0-2.6-0.6-4.6-1.8-6.1c-1.2-1.5-2.9-2.2-5.1-2.2c-2.2,0-3.9,0.7-5.1,2.2
					C140.1,36.8,139.5,38.8,139.5,41.4z M133.5,41.4c0-1.9,0.3-3.6,0.9-5.2c0.6-1.6,1.5-3,2.6-4.2c1.1-1.2,2.5-2.1,4.1-2.8
					c1.6-0.7,3.4-1,5.3-1s3.7,0.3,5.3,1c1.6,0.7,2.9,1.6,4,2.8c1.1,1.2,2,2.6,2.6,4.2c0.6,1.6,0.9,3.4,0.9,5.2
					c0,1.9-0.3,3.6-0.9,5.2c-0.6,1.6-1.5,3-2.6,4.2c-1.1,1.2-2.5,2.1-4.1,2.8c-1.6,0.7-3.4,1-5.3,1c-2,0-3.8-0.3-5.4-1
					c-1.6-0.7-2.9-1.6-4-2.8c-1.1-1.2-2-2.6-2.6-4.2C133.8,45.1,133.5,43.3,133.5,41.4z"/>
			</defs>
			<use xlink:href="#SVGID_23_"  overflow="visible" fill-rule="evenodd" clip-rule="evenodd" fill="#FFFFFF"/>
			<clipPath id="SVGID_2_">
				<use xlink:href="#SVGID_23_"  overflow="visible"/>
			</clipPath>
			
				<rect x="130.2" y="24.8" clip-path="url(#SVGID_2_)" fill-rule="evenodd" clip-rule="evenodd" fill="#FFFFFF" width="32.5" height="33.3"/>
		</g>
	</g>
	<g>
		<g>
			<defs>
				<path id="SVGID_25_" d="M185.7,54.2h-5.4l-0.3-1.9c-1.7,1.6-3.8,2.4-6.1,2.4c-6.9,0-10.4-4-10.4-12V28.6h5.8v13.7
					c0,2.6,0.4,4.5,1.3,5.6c0.9,1.2,2.2,1.8,4.1,1.8c2.3,0,4-0.8,5.2-2.4V28.6h5.8V54.2z"/>
			</defs>
			<use xlink:href="#SVGID_25_"  overflow="visible" fill-rule="evenodd" clip-rule="evenodd" fill="#FFFFFF"/>
			<clipPath id="SVGID_3_">
				<use xlink:href="#SVGID_25_"  overflow="visible"/>
			</clipPath>
			
				<rect x="160.2" y="25.2" clip-path="url(#SVGID_3_)" fill-rule="evenodd" clip-rule="evenodd" fill="#FFFFFF" width="28.9" height="32.8"/>
		</g>
	</g>
	<g>
		<g>
			<defs>
				<path id="SVGID_27_" d="M201.9,55.7l-3.6-0.5c-1.1,0.3-2,0.8-2.7,1.5c-0.7,0.7-1,1.4-1,2.3c0,1.2,0.6,2.1,1.8,2.8
					c1.2,0.7,2.9,1.1,5.1,1.1c2.2,0,3.9-0.3,5.2-1c1.3-0.7,2-1.6,2-2.7c0-1-0.6-1.7-1.8-2.2C205.7,56.4,204.1,56,201.9,55.7z
					 M200.5,32.5c-1.7,0-2.9,0.5-3.8,1.5c-0.9,1-1.3,2.4-1.3,4.2c0,1.8,0.4,3.1,1.3,4.2c0.9,1,2.2,1.5,3.8,1.5
					c1.7,0,2.9-0.5,3.8-1.6c0.9-1,1.3-2.4,1.3-4.2c0-1.8-0.4-3.1-1.3-4.1S202.1,32.5,200.5,32.5z M201.6,67.1c-2,0-3.7-0.2-5.3-0.6
					c-1.5-0.4-2.8-1-3.8-1.7c-1-0.7-1.8-1.5-2.3-2.4c-0.5-0.9-0.8-1.9-0.8-2.9c0-2.5,1.4-4.4,4.3-5.7c-1.6-0.9-2.4-2.1-2.4-3.6
					c0-1.5,0.9-2.7,2.7-3.6c-2.7-1.9-4.1-4.7-4.1-8.3c0-1.4,0.2-2.8,0.7-4c0.5-1.3,1.2-2.3,2.1-3.2c0.9-0.9,2-1.6,3.3-2.1
					c1.3-0.5,2.7-0.8,4.4-0.8c2.3,0,4.3,0.5,6,1.6c1.7-0.8,3.6-1.2,5.7-1.2h1.3l-0.5,3.8h-2c-0.6,0-1.2,0.1-2,0.2
					c1.2,1.7,1.8,3.6,1.8,5.8c0,1.4-0.2,2.7-0.7,3.9c-0.5,1.2-1.1,2.3-2,3.2c-0.9,0.9-2,1.7-3.3,2.2c-1.3,0.5-2.7,0.8-4.4,0.8
					c-1.1,0-2.1-0.1-3-0.3c-0.5,0.3-0.8,0.6-0.8,1c0,0.3,0.1,0.6,0.3,0.8c0.2,0.2,0.6,0.4,1.1,0.6c0.5,0.2,1.2,0.3,2.1,0.5
					c0.9,0.2,2,0.3,3.3,0.5c1.1,0.2,2.3,0.4,3.5,0.7c1.2,0.3,2.3,0.7,3.3,1.2c1,0.5,1.8,1.3,2.5,2.2c0.7,0.9,1,2,1.1,3.5
					c0,2.5-1.1,4.5-3.2,6C208.6,66.3,205.6,67.1,201.6,67.1z"/>
			</defs>
			<use xlink:href="#SVGID_27_"  overflow="visible" fill-rule="evenodd" clip-rule="evenodd" fill="#FFFFFF"/>
			<clipPath id="SVGID_4_">
				<use xlink:href="#SVGID_27_"  overflow="visible"/>
			</clipPath>
			
				<rect x="186.2" y="24.8" clip-path="url(#SVGID_4_)" fill-rule="evenodd" clip-rule="evenodd" fill="#FFFFFF" width="31.2" height="45.7"/>
		</g>
	</g>
	<g>
		<g>
			<defs>
				<path id="SVGID_29_" d="M273.3,33.1c-2,0-3.6,0.7-4.7,2.2c-1.1,1.5-1.7,3.5-1.7,6.1c0,2.7,0.6,4.8,1.7,6.2
					c1.1,1.5,2.7,2.2,4.7,2.2c2.1,0,3.7-0.8,4.9-2.3c1.2-1.6,1.8-3.6,1.8-6.1c0-2.5-0.6-4.5-1.8-6C277,33.8,275.4,33.1,273.3,33.1z
					 M273.7,54.7c-2.6,0-4.9-0.8-6.8-2.5l-0.2,2h-5.4V15.5h5.8v14.8c1.7-1.5,3.9-2.2,6.6-2.2c1.9,0,3.5,0.3,5.1,1
					c1.5,0.7,2.8,1.6,3.9,2.8c1.1,1.2,1.9,2.6,2.5,4.2c0.6,1.6,0.9,3.4,0.9,5.2c0,1.9-0.3,3.6-0.9,5.2c-0.6,1.6-1.4,3-2.4,4.2
					c-1.1,1.2-2.4,2.1-3.9,2.8C277.3,54.4,275.6,54.7,273.7,54.7z"/>
			</defs>
			<use xlink:href="#SVGID_29_"  overflow="visible" fill-rule="evenodd" clip-rule="evenodd" fill="#FFFFFF"/>
			<clipPath id="SVGID_5_">
				<use xlink:href="#SVGID_29_"  overflow="visible"/>
			</clipPath>
			
				<rect x="258" y="12.2" clip-path="url(#SVGID_5_)" fill-rule="evenodd" clip-rule="evenodd" fill="#FFFFFF" width="31.4" height="45.9"/>
		</g>
	</g>
	<g>
		<g>
			<defs>
				<path id="SVGID_31_" d="M239.1,54.2h-5.8V40.4c0-2.6-0.4-4.4-1.2-5.6c-0.8-1.2-2.2-1.8-4.2-1.8c-2.3,0-4.1,0.8-5.4,2.5v18.6
					h-5.8V15.5h5.8v14.8c1.8-1.5,3.8-2.3,6-2.3c7.1,0,10.7,4.1,10.7,12.3V54.2z"/>
			</defs>
			<use xlink:href="#SVGID_31_"  overflow="visible" fill-rule="evenodd" clip-rule="evenodd" fill="#FFFFFF"/>
			<clipPath id="SVGID_6_">
				<use xlink:href="#SVGID_31_"  overflow="visible"/>
			</clipPath>
			
				<rect x="213.2" y="12.2" clip-path="url(#SVGID_6_)" fill-rule="evenodd" clip-rule="evenodd" fill="#FFFFFF" width="29.2" height="45.4"/>
		</g>
	</g>
	<g>
		<g>
			<defs>
				<path id="SVGID_33_" d="M257,49.9l-0.5,4.8H252c-1.1,0-2.1-0.2-3-0.5c-0.9-0.3-1.6-0.8-2.1-1.4c-0.6-0.6-1-1.3-1.3-2.1
					c-0.3-0.8-0.4-1.6-0.4-2.6V33.3h-3.9l0.5-4.7h3.4V21l5.8-0.6v8.2h6v4.7h-6v12.2c0,1.1,0,1.9,0.1,2.5c0.1,0.6,0.2,1,0.5,1.3
					c0.3,0.3,0.7,0.4,1.3,0.5c0.6,0.1,1.4,0.1,2.4,0.1H257z"/>
			</defs>
			<use xlink:href="#SVGID_33_"  overflow="visible" fill-rule="evenodd" clip-rule="evenodd" fill="#FFFFFF"/>
			<clipPath id="SVGID_7_">
				<use xlink:href="#SVGID_33_"  overflow="visible"/>
			</clipPath>
			
				<rect x="238" y="17" clip-path="url(#SVGID_7_)" fill-rule="evenodd" clip-rule="evenodd" fill="#FFFFFF" width="22.4" height="41.1"/>
		</g>
	</g>
	<g>
		<g>
			<defs>
				<path id="SVGID_35_" d="M295.1,41.4c0,2.6,0.6,4.6,1.8,6.1c1.2,1.5,2.9,2.3,5.1,2.3c2.2,0,3.9-0.8,5.1-2.3
					c1.2-1.5,1.8-3.6,1.8-6.1c0-2.6-0.6-4.6-1.8-6.1c-1.2-1.5-2.9-2.2-5.1-2.2c-2.2,0-3.9,0.7-5.1,2.2
					C295.7,36.8,295.1,38.8,295.1,41.4z M289.1,41.4c0-1.9,0.3-3.6,0.9-5.2c0.6-1.6,1.5-3,2.6-4.2c1.1-1.2,2.5-2.1,4.1-2.8
					c1.6-0.7,3.4-1,5.3-1c2,0,3.7,0.3,5.3,1c1.6,0.7,2.9,1.6,4,2.8c1.1,1.2,2,2.6,2.6,4.2c0.6,1.6,0.9,3.4,0.9,5.2
					c0,1.9-0.3,3.6-0.9,5.2c-0.6,1.6-1.5,3-2.6,4.2c-1.1,1.2-2.5,2.1-4.1,2.8c-1.6,0.7-3.4,1-5.3,1c-2,0-3.8-0.3-5.4-1
					c-1.6-0.7-2.9-1.6-4-2.8c-1.1-1.2-2-2.6-2.6-4.2C289.4,45.1,289.1,43.3,289.1,41.4z"/>
			</defs>
			<use xlink:href="#SVGID_35_"  overflow="visible" fill-rule="evenodd" clip-rule="evenodd" fill="#FFFFFF"/>
			<clipPath id="SVGID_8_">
				<use xlink:href="#SVGID_35_"  overflow="visible"/>
			</clipPath>
			
				<rect x="285.8" y="24.8" clip-path="url(#SVGID_8_)" fill-rule="evenodd" clip-rule="evenodd" fill="#FFFFFF" width="32.5" height="33.3"/>
		</g>
	</g>
	<g>
		<g>
			<defs>
				<path id="SVGID_37_" d="M331.3,49.9l-0.5,4.8h-4.4c-1.1,0-2.1-0.2-3-0.5c-0.9-0.3-1.6-0.8-2.1-1.4c-0.6-0.6-1-1.3-1.3-2.1
					c-0.3-0.8-0.4-1.6-0.4-2.6V33.3h-3.9l0.5-4.7h3.4V21l5.8-0.6v8.2h6v4.7h-6v12.2c0,1.1,0,1.9,0.1,2.5c0.1,0.6,0.2,1,0.5,1.3
					c0.3,0.3,0.7,0.4,1.3,0.5c0.6,0.1,1.4,0.1,2.4,0.1H331.3z"/>
			</defs>
			<use xlink:href="#SVGID_37_"  overflow="visible" fill-rule="evenodd" clip-rule="evenodd" fill="#FFFFFF"/>
			<clipPath id="SVGID_9_">
				<use xlink:href="#SVGID_37_"  overflow="visible"/>
			</clipPath>
			
				<rect x="312.3" y="17" clip-path="url(#SVGID_9_)" fill-rule="evenodd" clip-rule="evenodd" fill="#FFFFFF" width="22.4" height="41.1"/>
		</g>
	</g>
	<g>
		<g>
			<defs>
				<path id="SVGID_39_" d="M102.7,49.9l-0.5,4.8h-4.4c-1.1,0-2.1-0.2-3-0.5c-0.9-0.3-1.6-0.8-2.1-1.4c-0.6-0.6-1-1.3-1.3-2.1
					s-0.4-1.6-0.4-2.6V33.3h-3.9l0.5-4.7h3.4V21l5.8-0.6v8.2h6v4.7h-6v12.2c0,1.1,0,1.9,0.1,2.5c0.1,0.6,0.2,1,0.5,1.3
					c0.3,0.3,0.7,0.4,1.3,0.5c0.6,0.1,1.4,0.1,2.4,0.1H102.7z"/>
			</defs>
			<use xlink:href="#SVGID_39_"  overflow="visible" fill-rule="evenodd" clip-rule="evenodd" fill="#FFFFFF"/>
			<clipPath id="SVGID_10_">
				<use xlink:href="#SVGID_39_"  overflow="visible"/>
			</clipPath>
			
				<rect x="83.7" y="17" clip-path="url(#SVGID_10_)" fill-rule="evenodd" clip-rule="evenodd" fill="#FFFFFF" width="22.4" height="41.1"/>
		</g>
	</g>
</g>
<g>
	<path fill="#FFFFFF" d="M352.7,48.4c0,0,3.2,2.6,7.4,2.6c3,0,4.5-1.2,4.5-2.9c0-4.7-12.5-4.3-12.5-12.5c0-4,2.9-7.5,10.1-7.5
		c4.5,0,7.4,1.4,7.4,1.4l-1.3,4.7c0,0-3-1.6-6.3-1.6c-2.9,0-4.1,1.1-4.1,2.6c0,4.5,12.5,4.1,12.5,12.4c0,4.7-3.7,7.9-10.1,7.9
		c-5.4,0-8.6-2.3-8.6-2.3L352.7,48.4z"/>
	<path fill="#FFFFFF" d="M373.9,30.1l4.1-1.5v-2.5c0-8.5,4.8-13.3,11.6-13.3c4.5,0,7.5,2.2,7.5,2.2l-2.2,4.4c0,0-2.5-1.8-5.4-1.8
		c-3,0-5.8,2.1-5.8,8.2v3.1h7.2v4.3h-7.2v21.7H378V33.1h-4.1V30.1z"/>
</g>
</svg>
